<?xml version="1.0" standalone="no"?>
<!DOCTYPE svg PUBLIC "-//W3C//DTD SVG 20010904//EN"
 "http://www.w3.org/TR/2001/REC-SVG-20010904/DTD/svg10.dtd">
<svg version="1.0" xmlns="http://www.w3.org/2000/svg"
 width="471.000000pt" height="429.000000pt" viewBox="0 0 471.000000 429.000000"
 preserveAspectRatio="xMidYMid meet">

<g transform="translate(0.000000,429.000000) scale(0.100000,-0.100000)"
fill="#000000" stroke="none">
<path d="M20 2170 l0 -2090 2295 0 2295 0 0 2090 0 2090 -2295 0 -2295 0 0
-2090z m4540 0 l0 -2040 -2245 0 -2245 0 0 2040 0 2040 2245 0 2245 0 0 -2040z"/>
<path d="M690 2350 l0 -400 150 0 150 0 0 40 c0 36 3 40 25 40 23 0 25 4 25
40 0 36 3 40 25 40 l25 0 0 240 0 240 -25 0 c-22 0 -25 4 -25 40 0 36 -2 40
-25 40 -22 0 -25 4 -25 40 l0 40 -150 0 -150 0 0 -400z m250 280 c0 -36 3 -40
25 -40 l25 0 0 -240 0 -240 -25 0 c-22 0 -25 -4 -25 -40 l0 -40 -75 0 -75 0 0
320 0 320 75 0 75 0 0 -40z"/>
<path d="M1190 2350 l0 -400 50 0 50 0 0 400 0 400 -50 0 -50 0 0 -400z"/>
<path d="M1390 2350 l0 -400 150 0 150 0 0 40 c0 36 3 40 25 40 23 0 25 4 25
40 0 36 3 40 25 40 l25 0 0 240 0 240 -25 0 c-22 0 -25 4 -25 40 0 36 -2 40
-25 40 -22 0 -25 4 -25 40 l0 40 -150 0 -150 0 0 -400z m250 280 c0 -36 3 -40
25 -40 l25 0 0 -240 0 -240 -25 0 c-22 0 -25 -4 -25 -40 l0 -40 -75 0 -75 0 0
320 0 320 75 0 75 0 0 -40z"/>
<path d="M1990 2670 c0 -79 0 -80 -25 -80 l-25 0 0 -120 0 -120 -25 0 -25 0 0
-120 0 -120 -25 0 c-25 0 -25 -1 -25 -80 l0 -80 50 0 50 0 0 80 0 80 100 0
100 0 0 -80 0 -80 50 0 50 0 0 80 c0 79 0 80 -25 80 l-25 0 0 120 0 120 -25 0
-25 0 0 120 0 120 -25 0 c-25 0 -25 1 -25 80 l0 80 -50 0 -50 0 0 -80z m100
-360 l0 -120 -50 0 -50 0 0 120 0 120 50 0 50 0 0 -120z"/>
<path d="M2290 2350 l0 -400 150 0 150 0 0 40 c0 36 3 40 25 40 23 0 25 4 25
40 0 36 3 40 25 40 l25 0 0 240 0 240 -25 0 c-22 0 -25 4 -25 40 0 36 -2 40
-25 40 -22 0 -25 4 -25 40 l0 40 -150 0 -150 0 0 -400z m250 280 c0 -36 3 -40
25 -40 l25 0 0 -240 0 -240 -25 0 c-22 0 -25 -4 -25 -40 l0 -40 -75 0 -75 0 0
320 0 320 75 0 75 0 0 -40z"/>
<path d="M2890 2710 c0 -36 -2 -40 -25 -40 -22 0 -25 -4 -25 -40 0 -36 -2 -40
-25 -40 l-25 0 0 -240 0 -240 25 0 c23 0 25 -4 25 -40 0 -36 3 -40 25 -40 23
0 25 -4 25 -40 l0 -40 100 0 100 0 0 40 c0 36 3 40 25 40 23 0 25 4 25 40 0
36 3 40 25 40 l25 0 0 240 0 240 -25 0 c-22 0 -25 4 -25 40 0 36 -2 40 -25 40
-22 0 -25 4 -25 40 l0 40 -100 0 -100 0 0 -40z m150 -80 c0 -36 3 -40 25 -40
l25 0 0 -240 0 -240 -25 0 c-22 0 -25 -4 -25 -40 l0 -40 -50 0 -50 0 0 40 c0
36 -2 40 -25 40 l-25 0 0 240 0 240 25 0 c23 0 25 4 25 40 l0 40 50 0 50 0 0
-40z"/>
<path d="M3290 2350 l0 -400 50 0 50 0 0 160 0 160 100 0 100 0 0 -120 0 -120
25 0 c23 0 25 -4 25 -40 l0 -40 50 0 50 0 0 40 c0 36 -2 40 -25 40 l-25 0 0
120 0 120 -25 0 c-22 0 -25 4 -25 40 0 36 3 40 25 40 l25 0 0 160 0 160 -25 0
c-22 0 -25 4 -25 40 l0 40 -175 0 -175 0 0 -400z m300 160 l0 -160 -100 0
-100 0 0 160 0 160 100 0 100 0 0 -160z"/>
</g>
</svg>
